<?xml version="1.0" encoding="utf-8"?>
<?xml-stylesheet type="text/xsl" href="rss1.xsl"?>
<rss version="2.0" xmlns:atom="http://www.w3.org/2005/Atom" xmlns:content="http://purl.org/rss/1.0/modules/content/" xmlns:dc="http://purl.org/dc/elements/1.1/" xmlns:media="http://search.yahoo.com/mrss/">
<channel>
 <title>Getty</title>
 <link>http://www.gettyimg.com/</link>
 <atom:link href="http://www.gettyimg.com/" rel="self" type="application/rss+xml" />

 
                <item>
                <title><![CDATA[【HD Live Performances】FEED - Eurovision 2024 - Final FEED HDTV H264 422 1080i MP2&amp;DolbyE-ilya2129]]></title>
                <link><![CDATA[https://sharemania.us/threads/eurovision-2024-final-feed-hdtv-h264-422-1080i-mp2-dolbye-ilya2129.244209/]]></link>
                <description><![CDATA[<article>
<blockquote class="messageText SelectQuoteContainer ugc baseHtml">
<div style="text-align: center"><img src="https://i123.fastpic.org/big/2024/0508/2e/f474adcbbcf24c9d228ee9d6230dfa2e.png?r=1" class="bbCodeImage LbImage" alt="[​IMG]" data-url="https://i123.fastpic.org/big/2024/0508/2e/f474adcbbcf24c9d228ee9d6230dfa2e.png?r=1" style=""><br>
<br>
<a href="https://fastpic.org/view/123/2024/0512/_5bf683f8ebf8260eccc7f8328365ace1.png.html" target="_blank" class="externalLink" rel="nofollow"><img src="https://i123.fastpic.org/thumb/2024/0512/e1/_5bf683f8ebf8260eccc7f8328365ace1.jpeg" class="bbCodeImage LbImage" alt="[​IMG]" data-url="https://i123.fastpic.org/thumb/2024/0512/e1/_5bf683f8ebf8260eccc7f8328365ace1.jpeg"></a> <a href="https://fastpic.org/view/123/2024/0512/_50dde130cab1a7f3ea352ba420aa3006.png.html" target="_blank" class="externalLink" rel="nofollow"><img src="https://i123.fastpic.org/thumb/2024/0512/06/_50dde130cab1a7f3ea352ba420aa3006.jpeg" class="bbCodeImage LbImage" alt="[​IMG]" data-url="https://i123.fastpic.org/thumb/2024/0512/06/_50dde130cab1a7f3ea352ba420aa3006.jpeg"></a> <a href="https://fastpic.org/view/123/2024/0512/_d98f1a94c094eff70434db48c65fd5d8.png.html" target="_blank" class="externalLink" rel="nofollow"><img src="https://i123.fastpic.org/thumb/2024/0512/d8/_d98f1a94c094eff70434db48c65fd5d8.jpeg" class="bbCodeImage LbImage" alt="[​IMG]" data-url="https://i123.fastpic.org/thumb/2024/0512/d8/_d98f1a94c094eff70434db48c65fd5d8.jpeg"></a> <a href="https://fastpic.org/view/123/2024/0512/_85a80856ef96926b18b2d26ae7234778.png.html" target="_blank" class="externalLink" rel="nofollow"><img src="https://i123.fastpic.org/thumb/2024/0512/78/_85a80856ef96926b18b2d26ae7234778.jpeg" class="bbCodeImage LbImage" alt="[​IMG]" data-url="https://i123.fastpic.org/thumb/2024/0512/78/_85a80856ef96926b18b2d26ae7234778.jpeg"></a> <a href="https://fastpic.org/view/123/2024/0512/_9193a5cfa3d4a9012e6ae5bb1d537275.png.html" target="_blank" class="externalLink" rel="nofollow"><img src="https://i123.fastpic.org/thumb/2024/0512/75/_9193a5cfa3d4a9012e6ae5bb1d537275.jpeg" class="bbCodeImage LbImage" alt="[​IMG]" data-url="https://i123.fastpic.org/thumb/2024/0512/75/_9193a5cfa3d4a9012e6ae5bb1d537275.jpeg"></a> <a href="https://fastpic.org/view/123/2024/0512/_0792591dad42dd710e31261ef6d59835.png.html" target="_blank" class="externalLink" rel="nofollow"><img src="https://i123.fastpic.org/thumb/2024/0512/35/_0792591dad42dd710e31261ef6d59835.jpeg" class="bbCodeImage LbImage" alt="[​IMG]" data-url="https://i123.fastpic.org/thumb/2024/0512/35/_0792591dad42dd710e31261ef6d59835.jpeg"></a><br>
​</div><br>
<div class="bbCodeBlock bbCodeCode">
<div class="type">Code:</div>
<pre>General
ID                                       : 1 (0x1)
Complete name                            : C:\Recordings\Eurovision 2024 - Final FEED HDTV H264 422 1080i MP2&amp;DolbyE-ilya2129.ts
Format                                   : MPEG-TS
File size                                : 67.5 GiB
Duration                                 : 3 h 56 min
Overall bit rate mode                    : Variable
Overall bit rate                         : 40.8 Mb/s
Frame rate                               : 25.000 FPS

Video
ID                                       : 512 (0x200)
Menu ID                                  : 1 (0x1)
Format                                   : AVC
Format/Info                              : Advanced Video Codec
Format profile                           : High 4:2:2@L4
Format settings                          : 3 Ref Frames
Format settings, CABAC                   : No
Format settings, Reference frames        : 3 frames
Format settings, GOP                     : M=3, N=15
Format settings, Slice count             : 2 slices per frame
Codec ID                                 : 27
Duration                                 : 3 h 56 min
Bit rate mode                            : Variable
Bit rate                                 : 35.3 Mb/s
Maximum bit rate                         : 36.5 Mb/s
Width                                    : 1 920 pixels
Height                                   : 1 080 pixels
Display aspect ratio                     : 16:9
Frame rate                               : 25.000 FPS
Color space                              : YUV
Chroma subsampling                       : 4:2:2
Bit depth                                : 8 bits
Scan type                                : Interlaced
Scan type, store method                  : Separated fields
Scan order                               : Top Field First
Bits/(Pixel*Frame)                       : 0.682
Stream size                              : 58.4 GiB (87%)
Color range                              : Limited
Color primaries                          : BT.709
Transfer characteristics                 : BT.709
Matrix coefficients                      : BT.709

Audio #1
ID                                       : 4112 (0x1010)
Menu ID                                  : 1 (0x1)
Format                                   : MPEG Audio
Format version                           : Version 1
Format profile                           : Layer 2
Format settings                          : Dual mono
Codec ID                                 : 3
Duration                                 : 3 h 56 min
Bit rate mode                            : Constant
Bit rate                                 : 384 kb/s
Channel(s)                               : 2 channels
Sampling rate                            : 48.0 kHz
Frame rate                               : 41.667 FPS (1152 SPF)
Compression mode                         : Lossy
Delay relative to video                  : 19 ms
Stream size                              : 649 MiB (1%)
Language                                 : English
Language, more info                      : Clean effects

Audio #2
ID                                       : 4128 (0x1020)
Menu ID                                  : 1 (0x1)
Format                                   : MPEG Audio
Format version                           : Version 1
Format profile                           : Layer 2
Format settings                          : Dual mono
Codec ID                                 : 3
Duration                                 : 3 h 56 min
Bit rate mode                            : Constant
Bit rate                                 : 384 kb/s
Channel(s)                               : 2 channels
Sampling rate                            : 48.0 kHz
Frame rate                               : 41.667 FPS (1152 SPF)
Compression mode                         : Lossy
Delay relative to video                  : 19 ms
Stream size                              : 649 MiB (1%)
Language                                 : English
Language, more info                      : Clean effects

Audio #3
ID                                       : 4144 (0x1030)
Menu ID                                  : 1 (0x1)
Format                                   : Dolby E
Format settings                          : Little
Muxing mode                              : SMPTE ST 302 / SMPTE ST 337
Codec ID                                 : 6
Duration                                 : 3 h 56 min
Bit rate mode                            : Constant
Bit rate                                 : 1 803 kb/s
Channel(s)                               : 6 channels
Channel layout                           : L C Ls R LFE Rs
Sampling rate                            : 48.0 kHz
Frame rate                               : 25.000 FPS (1920 SPF)
Bit depth                                : 20 bits
Delay relative to video                  : 37 ms
Stream size                              : 2.98 GiB (4%)
Title                                    : ESC 2024
Language                                 : English
Language, more info                      : Clean effects

Audio #4
ID                                       : 4160 (0x1040)
Menu ID                                  : 1 (0x1)
Format                                   : MPEG Audio
Format version                           : Version 1
Format profile                           : Layer 2
Format settings                          : Dual mono
Codec ID                                 : 3
Duration                                 : 3 h 56 min
Bit rate mode                            : Constant
Bit rate                                 : 384 kb/s
Channel(s)                               : 2 channels
Sampling rate                            : 48.0 kHz
Frame rate                               : 41.667 FPS (1152 SPF)
Compression mode                         : Lossy
Delay relative to video                  : 19 ms
Stream size                              : 649 MiB (1%)
Language                                 : English
Language, more info                      : Clean effects
</pre>
</div><div style="text-align: center">
<div class="bbCodeBlock bbCodeVfcHH HiddenContent">
<div class="attribution type">Hidden Content:</div>
<blockquote>You must either reply or click 'Like' to see the hidden information contained here.</blockquote>
</div></div>
<div class="messageTextEndMarker">&nbsp;</div>
</blockquote>
</article>]]></description>
                <author><![CDATA[ilya2129]]></author>
                </item>

                
                <item>
                <title><![CDATA[【Albums (lossless)】FLAC - Taeyeon - To. X - The 5th Mini Album (Qobuz Hi-Res)]]></title>
                <link><![CDATA[https://sharemania.us/threads/taeyeon-to-x-the-5th-mini-album-qobuz-hi-res.244210/]]></link>
                <description><![CDATA[<article>
<blockquote class="messageText SelectQuoteContainer ugc baseHtml">
And you can download it for free here, then I will immediately accept your request for access permission. ♥️<br>
<br>
With the size 403 mb.<br>
<br>
#GirlsGeneration #GG #NationGirlGroup #KimTaeyeon #SMTOWN<br>
<br>
<div class="bbCodeBlock bbCodeCode">
<div class="type">Code:</div>
<pre>https://drive.google.com/drive/folders/17n1om1RWCk6_JFISYrPhh1dUoa5YT0zf</pre>
</div>
<div class="messageTextEndMarker">&nbsp;</div>
</blockquote>
</article>]]></description>
                <author><![CDATA[RadifGrande]]></author>
                </item>

                </channel></rss>